<svg xmlns="http://www.w3.org/2000/svg" viewBox="0 0 1447 185">
  <!-- <path d="M.726.22h1446v185H.726z"/> -->
  <path d="M1344.96 80.348c-3.6-8.995-7.71-12.85-15.68-13.62v-3.342h44.46v3.341c-10.53.257-15.16 2.57-15.16 7.71 0 1.542.26 3.598 1.29 5.911l30.07 79.156 30.58-77.614c1.03-2.313 1.54-4.626 1.54-6.425 0-5.397-5.14-8.224-16.19-8.738v-3.34h38.81v3.34c-8.23.257-13.37 4.626-17.74 15.42l-39.32 99.716h-3.08l-31.1-79.413-31.35 79.413h-3.34l-38.81-101c-3.6-9.51-8.22-13.365-16.19-14.136v-3.34h44.46v3.34c-10.54.257-15.16 2.57-15.16 7.71 0 1.8.25 3.855 1.28 6.168l29.81 78.899 25.96-65.792-5.14-13.364ZM1177.14 115.3c-.77 32.382 14.9 54.998 43.17 54.998 18.51 0 30.84-12.593 35.73-25.957l3.08.771c-4.88 22.616-21.84 36.494-45.23 36.494-30.58 0-51.4-24.415-51.4-59.11 0-39.32 22.36-62.965 53.97-62.965 24.93 0 42.4 15.677 42.4 42.662 0 2.57-.25 5.14-.51 7.71h-80.96c-.25 1.799-.25 3.598-.25 5.397Zm1.03-11.822h65.02c.25-2.313.25-4.369.25-6.425 0-20.046-12.33-31.097-29.55-31.097-18.51 0-31.87 14.65-35.72 37.522Zm-45.49 57.825c0 8.224 4.62 11.822 16.7 13.364v3.598h-47.03v-3.598c12.08-1.542 16.71-5.14 16.71-13.364V82.661c0-7.967-3.35-11.565-11.83-12.079l-4.11-.257v-3.598l29.56-7.196v101.772Zm-19.54-146.747c0-6.939 5.66-12.336 12.85-12.336 6.69 0 12.08 5.397 12.08 12.336a12.06 12.06 0 0 1-12.08 12.08c-7.19 0-12.85-5.398-12.85-12.08ZM983.315 80.862c-3.598-9.252-8.481-13.107-17.476-13.878v-3.598h44.721v3.598c-9.26.257-13.367 2.827-13.367 7.967 0 1.8.514 3.855 1.285 6.168l30.582 79.156 31.35-78.642c1.03-2.313 1.55-4.369 1.55-6.168 0-5.397-5.14-7.967-16.19-8.48v-3.599h39.06v3.598c-8.48.514-13.62 4.883-17.48 14.906L1027 181.863h-3.59l-40.095-101ZM879.228 115.3c-.771 32.382 14.906 54.998 43.176 54.998 18.504 0 30.84-12.593 35.723-25.957l3.084.771c-4.883 22.616-21.845 36.494-45.232 36.494-30.583 0-51.4-24.415-51.4-59.11 0-39.32 22.359-62.965 53.97-62.965 24.929 0 42.405 15.677 42.405 42.662 0 2.57-.257 5.14-.514 7.71h-80.955c-.257 1.799-.257 3.598-.257 5.397Zm1.028-11.822h65.021c.257-2.313.257-4.369.257-6.425 0-20.046-12.336-31.097-29.555-31.097-18.504 0-31.868 14.65-35.723 37.522Zm-54.281 74.787c-.514-3.084-4.883-9.252-15.42-21.074l-58.339-64.25v61.423c0 17.219 7.967 19.789 23.387 20.303v3.598h-62.965v-3.598c15.42-.514 23.387-3.084 23.387-20.303V30.234c0-16.706-7.967-19.533-23.387-20.047V6.59h68.105c38.55 0 65.535 11.565 65.535 44.975 0 33.153-26.985 46.003-65.535 45.49h-4.112l49.601 54.74c13.878 15.163 25.443 21.588 41.377 22.873v3.598h-41.634Zm-73.759-88.408h27.756c31.868 0 48.316-14.649 48.316-38.293 0-23.387-16.448-37.779-48.316-37.779h-27.756v76.072Zm-105.725 71.446c0 8.224 4.626 11.822 16.705 13.364v3.598h-47.031v-3.598c12.079-1.542 16.705-5.14 16.705-13.364V99.366c0-21.33-11.051-29.555-24.929-29.555-16.448 0-34.952 11.565-34.952 42.405v49.087c0 8.224 4.626 11.822 16.705 13.364v3.598h-47.031v-3.598c12.079-1.542 16.705-5.14 16.705-13.364V82.661c0-7.967-3.341-11.565-11.822-12.079l-4.112-.257v-3.598l29.555-7.196v31.097c7.196-21.074 21.845-31.097 39.578-31.097 20.046 0 33.924 12.336 33.924 38.55v63.222Zm-132.612 0c0 8.224 4.626 11.822 16.705 13.364v3.598h-47.031v-3.598c12.079-1.542 16.705-5.14 16.705-13.364V82.661c0-7.967-3.341-11.565-11.822-12.079l-4.112-.257v-3.598l29.555-7.196v101.772ZM494.347 14.556c0-6.939 5.654-12.336 12.85-12.336 6.682 0 12.079 5.397 12.079 12.336a12.065 12.065 0 0 1-12.079 12.08c-7.196 0-12.85-5.398-12.85-12.08Zm-98.186 78.385c5.14-21.074 17.476-33.41 31.097-33.41 3.855 0 7.453 1.028 11.308 2.827L436.51 76.75c-4.112-2.57-8.738-3.855-12.85-3.855-14.392 0-26.985 14.392-27.499 41.634v46.774c0 8.738 6.682 12.593 23.644 13.364v3.598h-53.97v-3.598c12.079-1.542 16.705-5.14 16.705-13.364V82.661c0-7.967-3.341-11.565-11.822-12.079l-4.112-.257v-3.598l29.555-7.196v33.41ZM290.776 182.12c-20.046 0-33.41-12.593-33.41-30.583 0-46.517 70.161-26.471 70.161-58.853 0-15.934-11.051-26.728-27.242-26.728-16.705 0-26.471 11.308-26.471 25.957 0 2.827.257 5.654 1.028 8.738h-17.476c.257-21.845 15.677-41.12 43.176-41.12 24.929 0 40.349 15.677 40.349 39.064v60.395c0 7.967 3.341 11.565 11.822 12.336l4.112.257v3.598l-29.041 7.196v-31.611c-6.939 21.074-19.789 31.354-37.008 31.354Zm-17.99-31.868c0 13.107 9.509 22.359 22.873 22.359 14.906 0 31.868-14.135 31.868-37.008v-28.784c-9.766 18.761-54.741 8.481-54.741 43.433ZM156.878 115.3c-.771 32.382 14.906 54.998 43.176 54.998 18.504 0 30.84-12.593 35.723-25.957l3.084.771c-4.883 22.616-21.845 36.494-45.232 36.494-30.583 0-51.4-24.415-51.4-59.11 0-39.32 22.359-62.965 53.97-62.965 24.929 0 42.405 15.677 42.405 42.662 0 2.57-.257 5.14-.514 7.71h-80.955c-.257 1.799-.257 3.598-.257 5.397Zm1.028-11.822h65.021c.257-2.313.257-4.369.257-6.425 0-20.046-12.336-31.097-29.555-31.097-18.504 0-31.868 14.65-35.723 37.522ZM50.014 174.667c15.42-.514 23.13-3.084 23.13-20.303v-49.087L28.94 31.775C20.202 16.87 12.749 10.701 2.726 10.187V6.59h60.138v3.598c-13.364.257-19.532 3.341-19.532 9.766 0 3.084 1.542 6.94 4.369 11.822l38.807 64.507L126.6 31.775c3.341-5.397 4.883-9.509 4.883-12.85 0-5.91-5.397-8.48-17.219-8.738V6.59h52.942v3.598c-13.621.514-22.873 6.682-32.125 21.588L89.335 105.02v49.344c0 17.219 7.967 19.789 23.13 20.303v3.598H50.014v-3.598Z"/>
  <path stroke="#ffffff" stroke-linejoin="round" stroke-width="4" d="M1344.96 80.348c-3.6-8.995-7.71-12.85-15.68-13.62v-3.342h44.46v3.341c-10.53.257-15.16 2.57-15.16 7.71 0 1.542.26 3.598 1.29 5.911l30.07 79.156 30.58-77.614c1.03-2.313 1.54-4.626 1.54-6.425 0-5.397-5.14-8.224-16.19-8.738v-3.34h38.81v3.34c-8.23.257-13.37 4.626-17.74 15.42l-39.32 99.716h-3.08l-31.1-79.413-31.35 79.413h-3.34l-38.81-101c-3.6-9.51-8.22-13.365-16.19-14.136v-3.34h44.46v3.34c-10.54.257-15.16 2.57-15.16 7.71 0 1.8.25 3.855 1.28 6.168l29.81 78.899 25.96-65.792-5.14-13.364ZM1177.14 115.3c-.77 32.382 14.9 54.998 43.17 54.998 18.51 0 30.84-12.593 35.73-25.957l3.08.771c-4.88 22.616-21.84 36.494-45.23 36.494-30.58 0-51.4-24.415-51.4-59.11 0-39.32 22.36-62.965 53.97-62.965 24.93 0 42.4 15.677 42.4 42.662 0 2.57-.25 5.14-.51 7.71h-80.96c-.25 1.799-.25 3.598-.25 5.397Zm1.03-11.822h65.02c.25-2.313.25-4.369.25-6.425 0-20.046-12.33-31.097-29.55-31.097-18.51 0-31.87 14.65-35.72 37.522Zm-45.49 57.825c0 8.224 4.62 11.822 16.7 13.364v3.598h-47.03v-3.598c12.08-1.542 16.71-5.14 16.71-13.364V82.661c0-7.967-3.35-11.565-11.83-12.079l-4.11-.257v-3.598l29.56-7.196v101.772Zm-19.54-146.747c0-6.939 5.66-12.336 12.85-12.336 6.69 0 12.08 5.397 12.08 12.336a12.06 12.06 0 0 1-12.08 12.08c-7.19 0-12.85-5.398-12.85-12.08ZM983.315 80.862c-3.598-9.252-8.481-13.107-17.476-13.878v-3.598h44.721v3.598c-9.26.257-13.367 2.827-13.367 7.967 0 1.8.514 3.855 1.285 6.168l30.582 79.156 31.35-78.642c1.03-2.313 1.55-4.369 1.55-6.168 0-5.397-5.14-7.967-16.19-8.48v-3.599h39.06v3.598c-8.48.514-13.62 4.883-17.48 14.906L1027 181.863h-3.59l-40.095-101ZM879.228 115.3c-.771 32.382 14.906 54.998 43.176 54.998 18.504 0 30.84-12.593 35.723-25.957l3.084.771c-4.883 22.616-21.845 36.494-45.232 36.494-30.583 0-51.4-24.415-51.4-59.11 0-39.32 22.359-62.965 53.97-62.965 24.929 0 42.405 15.677 42.405 42.662 0 2.57-.257 5.14-.514 7.71h-80.955c-.257 1.799-.257 3.598-.257 5.397Zm1.028-11.822h65.021c.257-2.313.257-4.369.257-6.425 0-20.046-12.336-31.097-29.555-31.097-18.504 0-31.868 14.65-35.723 37.522Zm-54.281 74.787c-.514-3.084-4.883-9.252-15.42-21.074l-58.339-64.25v61.423c0 17.219 7.967 19.789 23.387 20.303v3.598h-62.965v-3.598c15.42-.514 23.387-3.084 23.387-20.303V30.234c0-16.706-7.967-19.533-23.387-20.047V6.59h68.105c38.55 0 65.535 11.565 65.535 44.975 0 33.153-26.985 46.003-65.535 45.49h-4.112l49.601 54.74c13.878 15.163 25.443 21.588 41.377 22.873v3.598h-41.634Zm-73.759-88.408h27.756c31.868 0 48.316-14.649 48.316-38.293 0-23.387-16.448-37.779-48.316-37.779h-27.756v76.072Zm-105.725 71.446c0 8.224 4.626 11.822 16.705 13.364v3.598h-47.031v-3.598c12.079-1.542 16.705-5.14 16.705-13.364V99.366c0-21.33-11.051-29.555-24.929-29.555-16.448 0-34.952 11.565-34.952 42.405v49.087c0 8.224 4.626 11.822 16.705 13.364v3.598h-47.031v-3.598c12.079-1.542 16.705-5.14 16.705-13.364V82.661c0-7.967-3.341-11.565-11.822-12.079l-4.112-.257v-3.598l29.555-7.196v31.097c7.196-21.074 21.845-31.097 39.578-31.097 20.046 0 33.924 12.336 33.924 38.55v63.222Zm-132.612 0c0 8.224 4.626 11.822 16.705 13.364v3.598h-47.031v-3.598c12.079-1.542 16.705-5.14 16.705-13.364V82.661c0-7.967-3.341-11.565-11.822-12.079l-4.112-.257v-3.598l29.555-7.196v101.772ZM494.347 14.556c0-6.939 5.654-12.336 12.85-12.336 6.682 0 12.079 5.397 12.079 12.336a12.065 12.065 0 0 1-12.079 12.08c-7.196 0-12.85-5.398-12.85-12.08Zm-98.186 78.385c5.14-21.074 17.476-33.41 31.097-33.41 3.855 0 7.453 1.028 11.308 2.827L436.51 76.75c-4.112-2.57-8.738-3.855-12.85-3.855-14.392 0-26.985 14.392-27.499 41.634v46.774c0 8.738 6.682 12.593 23.644 13.364v3.598h-53.97v-3.598c12.079-1.542 16.705-5.14 16.705-13.364V82.661c0-7.967-3.341-11.565-11.822-12.079l-4.112-.257v-3.598l29.555-7.196v33.41ZM290.776 182.12c-20.046 0-33.41-12.593-33.41-30.583 0-46.517 70.161-26.471 70.161-58.853 0-15.934-11.051-26.728-27.242-26.728-16.705 0-26.471 11.308-26.471 25.957 0 2.827.257 5.654 1.028 8.738h-17.476c.257-21.845 15.677-41.12 43.176-41.12 24.929 0 40.349 15.677 40.349 39.064v60.395c0 7.967 3.341 11.565 11.822 12.336l4.112.257v3.598l-29.041 7.196v-31.611c-6.939 21.074-19.789 31.354-37.008 31.354Zm-17.99-31.868c0 13.107 9.509 22.359 22.873 22.359 14.906 0 31.868-14.135 31.868-37.008v-28.784c-9.766 18.761-54.741 8.481-54.741 43.433ZM156.878 115.3c-.771 32.382 14.906 54.998 43.176 54.998 18.504 0 30.84-12.593 35.723-25.957l3.084.771c-4.883 22.616-21.845 36.494-45.232 36.494-30.583 0-51.4-24.415-51.4-59.11 0-39.32 22.359-62.965 53.97-62.965 24.929 0 42.405 15.677 42.405 42.662 0 2.57-.257 5.14-.514 7.71h-80.955c-.257 1.799-.257 3.598-.257 5.397Zm1.028-11.822h65.021c.257-2.313.257-4.369.257-6.425 0-20.046-12.336-31.097-29.555-31.097-18.504 0-31.868 14.65-35.723 37.522ZM50.014 174.667c15.42-.514 23.13-3.084 23.13-20.303v-49.087L28.94 31.775C20.202 16.87 12.749 10.701 2.726 10.187V6.59h60.138v3.598c-13.364.257-19.532 3.341-19.532 9.766 0 3.084 1.542 6.94 4.369 11.822l38.807 64.507L126.6 31.775c3.341-5.397 4.883-9.509 4.883-12.85 0-5.91-5.397-8.48-17.219-8.738V6.59h52.942v3.598c-13.621.514-22.873 6.682-32.125 21.588L89.335 105.02v49.344c0 17.219 7.967 19.789 23.13 20.303v3.598H50.014v-3.598Z"/>
</svg>
